<?xml version="1.0" ?><svg viewBox="0 0 24 24" xmlns="http://www.w3.org/2000/svg"><defs><style>.cls-1{fill:none;}.cls-2{fill:#fff;}.cls-3{fill:#4caf50;}.cls-4{fill:#1e88e5;}.cls-5{fill:#e53935;}.cls-6{fill:#c62828;}.cls-7{fill:#fbc02d;}</style></defs><title/><g data-name="Layer 2" id="Layer_2"><g data-name="Layer 3" id="Layer_3"><rect class="cls-1" height="24" width="24"/><path class="cls-2" d="M1,12C1,4,4,1,12,1S23,4,23,12,20,23,12,23,1,20,1,12"/><path class="cls-3" d="M20.16,9l-3.89,2.86V18.1H19A1.15,1.15,0,0,0,20.16,17Z"/><path class="cls-4" d="M3.84,9l3.88,2.88v6.23H5A1.15,1.15,0,0,1,3.84,17Z"/><polygon class="cls-5" points="16.27 7.1 12 10.25 7.73 7.1 7.73 11.87 12 15.02 16.27 11.87 16.27 7.1"/><path class="cls-6" d="M3.84,7.52V9l3.88,2.88V7.1L6.51,6.21a1.67,1.67,0,0,0-1-.33h0A1.65,1.65,0,0,0,3.84,7.52Z"/><path class="cls-7" d="M20.16,7.52V9l-3.89,2.86V7.1l1.22-.89a1.67,1.67,0,0,1,1-.33h0A1.65,1.65,0,0,1,20.16,7.52Z"/></g></g></svg>