<?xml version="1.0" ?><svg id="Layer_1" style="enable-background:new 0 0 512 512;" version="1.1" viewBox="0 0 512 512" xml:space="preserve" xmlns="http://www.w3.org/2000/svg" xmlns:xlink="http://www.w3.org/1999/xlink"><style type="text/css">
	.st0{fill:#38556D;}
	.st1{fill:#102535;}
	.st2{fill:#07D8C9;}
	.st3{fill:#006D6A;}
	.st4{fill:#FFD400;}
	.st5{fill:#EF9900;}
	.st6{fill:#EF7875;}
	.st7{fill:#D22D33;}
	.st8{fill:#FFFFFF;}
</style><g id="XMLID_663_"><rect class="st0" height="45.1" id="XMLID_751_" width="94.2" x="6" y="224.8"/><polygon class="st1" id="XMLID_750_" points="116.8,211.4 100.2,269.9 100.2,224.8 116.8,166.3  "/><rect class="st2" height="45.1" id="XMLID_749_" width="94.2" x="6" y="269.7"/><polygon class="st3" id="XMLID_748_" points="116.8,256.2 100.2,314.8 100.2,269.7 116.8,211.2  "/><rect class="st4" height="45.1" id="XMLID_747_" width="94.2" x="6" y="314.6"/><polygon class="st5" id="XMLID_746_" points="116.8,301.1 100.2,359.7 100.2,314.6 116.8,256  "/><rect class="st6" height="45.1" id="XMLID_745_" width="94.2" x="6" y="359.4"/><polygon class="st7" id="XMLID_740_" points="116.8,346 100.2,404.5 100.2,359.4 116.8,300.9  "/><g id="XMLID_667_"><g id="XMLID_691_"><path class="st8" d="M30.9,255.6l1.9-2.3c1.4-1.5,2.4-2.7,2.9-3.4c0.5-0.8,0.8-1.7,0.8-2.7     c0-1.5-0.5-2.7-1.4-3.5c-0.9-0.9-2.3-1.3-4-1.3c-1.7,0-3,0.5-4,1.5c-1,1-1.5,2.3-1.5,3.7l0,0.1h3.6c0-0.7,0.2-1.3,0.5-1.8     c0.3-0.5,0.8-0.7,1.3-0.7c0.6,0,1.1,0.2,1.3,0.5c0.3,0.4,0.4,0.8,0.4,1.5c0,0.4-0.2,0.9-0.5,1.5c-0.3,0.6-0.8,1.2-1.4,2l-4.9,5.4     v2.4h11v-2.8L30.9,255.6L30.9,255.6z" id="XMLID_699_"/><path class="st8" d="M44.3,242.4c-1.7,0-3,0.5-4,1.6c-1,1.1-1.5,2.6-1.5,4.5v4.2c0,1.9,0.5,3.4,1.5,4.5     c1,1.1,2.4,1.6,4,1.6c1.7,0,3-0.5,4-1.6c1-1.1,1.5-2.6,1.5-4.5v-4.2c0-1.9-0.5-3.4-1.5-4.5C47.3,242.9,46,242.4,44.3,242.4z      M46.2,252.9c0,1-0.2,1.7-0.5,2.2c-0.3,0.5-0.8,0.8-1.4,0.8c-0.6,0-1.1-0.3-1.4-0.8c-0.3-0.5-0.5-1.3-0.5-2.2v-4.7     c0-1,0.2-1.7,0.5-2.2c0.3-0.5,0.8-0.8,1.4-0.8c0.6,0,1,0.3,1.4,0.8c0.3,0.5,0.5,1.2,0.5,2.2V252.9z" id="XMLID_696_"/><polygon class="st8" id="XMLID_695_" points="53.1,245.8 56.3,245.8 56.3,258.5 60,258.5 60,242.4 53.1,243    "/><path class="st8" d="M74.8,249.5c-0.7-1-1.8-1.5-3.2-1.5c-0.7,0-1.4,0.1-2,0.3c-0.6,0.2-1.1,0.5-1.5,0.9v-0.2     c0-1.3,0.3-2.2,0.8-2.9c0.5-0.6,1.3-1,2.2-1c0.5,0,0.9,0,1.3,0.1c0.4,0.1,0.8,0.2,1.3,0.3l0.6-2.7c-0.6-0.2-1.1-0.4-1.6-0.5     c-0.5-0.1-1-0.2-1.6-0.2c-1.9,0-3.5,0.6-4.8,1.8c-1.2,1.2-1.9,2.8-1.9,4.9v3.2c0,2,0.5,3.5,1.6,4.7c1.1,1.1,2.5,1.7,4.2,1.7     c1.6,0,3-0.5,4-1.5c1-1,1.6-2.3,1.6-3.9C75.9,251.8,75.6,250.5,74.8,249.5z M71.7,255.2c-0.3,0.5-0.8,0.7-1.4,0.7     c-0.7,0-1.2-0.3-1.6-0.9c-0.4-0.6-0.6-1.5-0.6-2.6v-0.7c0.2-0.3,0.5-0.5,0.9-0.6c0.4-0.1,0.8-0.2,1.3-0.2c0.5,0,1,0.2,1.3,0.7     c0.3,0.4,0.5,1.1,0.5,1.9C72.3,254.1,72.1,254.7,71.7,255.2z" id="XMLID_692_"/></g><g id="XMLID_684_"><path class="st8" d="M30.9,299.7l1.9-2.3c1.4-1.5,2.4-2.7,2.9-3.4c0.5-0.8,0.8-1.7,0.8-2.7     c0-1.5-0.5-2.7-1.4-3.5c-0.9-0.9-2.3-1.3-4-1.3c-1.7,0-3,0.5-4,1.5c-1,1-1.5,2.3-1.5,3.7l0,0.1h3.6c0-0.7,0.2-1.3,0.5-1.8     c0.3-0.5,0.8-0.7,1.3-0.7c0.6,0,1.1,0.2,1.3,0.5c0.3,0.4,0.4,0.9,0.4,1.5c0,0.4-0.2,0.9-0.5,1.5c-0.3,0.6-0.8,1.2-1.4,2l-4.9,5.4     v2.4h11.1v-2.8L30.9,299.7L30.9,299.7z" id="XMLID_690_"/><path class="st8" d="M44.4,286.5c-1.7,0-3,0.5-4,1.6c-1,1.1-1.5,2.6-1.5,4.5v4.2c0,1.9,0.5,3.4,1.5,4.5     s2.4,1.6,4,1.6c1.7,0,3-0.5,4-1.6s1.5-2.6,1.5-4.5v-4.2c0-1.9-0.5-3.4-1.5-4.5C47.4,287,46,286.5,44.4,286.5z M46.2,297     c0,1-0.2,1.7-0.5,2.2c-0.3,0.5-0.8,0.8-1.4,0.8c-0.6,0-1.1-0.3-1.4-0.8c-0.3-0.5-0.5-1.3-0.5-2.2v-4.7c0-1,0.2-1.7,0.5-2.2     c0.3-0.5,0.8-0.8,1.4-0.8c0.6,0,1,0.3,1.4,0.8c0.3,0.5,0.5,1.3,0.5,2.2V297z" id="XMLID_687_"/><polygon class="st8" id="XMLID_686_" points="53.1,289.9 56.3,289.9 56.3,302.6 60,302.6 60,286.5 53.1,287    "/><path class="st8" d="M74.8,293.5c-0.8-0.9-1.9-1.4-3.4-1.4c-0.5,0-1.1,0.1-1.5,0.2c-0.5,0.1-0.8,0.3-1.1,0.5     l0.4-3.3h6.3v-2.9h-9.3l-0.9,8.9l3.3,0.2c0.1-0.3,0.3-0.6,0.6-0.8c0.3-0.2,0.7-0.3,1.2-0.3c0.7,0,1.2,0.3,1.5,0.8     c0.3,0.5,0.5,1.2,0.5,2.1c0,0.8-0.1,1.5-0.4,1.9c-0.3,0.4-0.7,0.6-1.4,0.6c-0.6,0-1.1-0.2-1.4-0.5c-0.4-0.3-0.5-0.8-0.5-1.3     l-3.6,0.2l0,0.1c0,1.3,0.5,2.4,1.6,3.2c1.1,0.8,2.4,1.2,4,1.2c1.9,0,3.3-0.5,4.2-1.5c0.9-1,1.3-2.3,1.3-3.8     C75.9,295.8,75.5,294.4,74.8,293.5z" id="XMLID_685_"/></g><g id="XMLID_675_"><path class="st8" d="M30.9,343.8l1.9-2.3c1.4-1.5,2.3-2.6,2.9-3.4c0.5-0.8,0.8-1.7,0.8-2.7     c0-1.5-0.5-2.7-1.4-3.5c-0.9-0.9-2.3-1.3-4-1.3c-1.7,0-3,0.5-4,1.5c-1,1-1.5,2.3-1.4,3.7l0,0.1h3.6c0-0.7,0.2-1.3,0.5-1.8     c0.3-0.5,0.8-0.7,1.3-0.7c0.6,0,1.1,0.2,1.3,0.5c0.3,0.4,0.4,0.8,0.4,1.5c0,0.4-0.2,0.9-0.5,1.5c-0.3,0.6-0.8,1.2-1.4,2l-4.9,5.4     v2.4h11v-2.8L30.9,343.8L30.9,343.8z" id="XMLID_683_"/><path class="st8" d="M44.3,330.6c-1.7,0-3,0.5-4,1.6c-1,1.1-1.5,2.6-1.5,4.4v4.2c0,1.9,0.5,3.4,1.5,4.4     s2.3,1.6,4,1.6c1.7,0,3-0.5,4-1.6s1.5-2.6,1.5-4.4v-4.2c0-1.9-0.5-3.4-1.5-4.4C47.3,331.1,45.9,330.6,44.3,330.6z M46.1,341.1     c0,1-0.2,1.7-0.5,2.2c-0.3,0.5-0.8,0.8-1.4,0.8c-0.6,0-1.1-0.3-1.4-0.8c-0.3-0.5-0.5-1.2-0.5-2.2v-4.7c0-1,0.2-1.7,0.5-2.2     c0.3-0.5,0.8-0.8,1.4-0.8c0.6,0,1,0.3,1.4,0.8c0.3,0.5,0.5,1.2,0.5,2.2V341.1z" id="XMLID_680_"/><polygon class="st8" id="XMLID_679_" points="53,334 56.2,334 56.2,346.7 59.9,346.7 59.9,330.6 53,331.2    "/><path class="st8" d="M74.3,340.5v-9.6h-3.7v0l-6.5,10.2l0.2,2.3h6.3v3.3h3.7v-3.3h1.6v-2.9H74.3z M70.7,340.5     h-3.4l2.9-4.1l0.4-0.8l0.1,0V340.5z" id="XMLID_676_"/></g><g id="XMLID_668_"><path class="st8" d="M30.9,387.9l1.9-2.3c1.4-1.5,2.4-2.7,2.9-3.4c0.5-0.8,0.8-1.7,0.8-2.7     c0-1.5-0.5-2.7-1.4-3.5c-0.9-0.9-2.3-1.3-4-1.3c-1.7,0-3,0.5-4,1.5c-1,1-1.5,2.3-1.4,3.7l0,0.1h3.6c0-0.7,0.2-1.3,0.5-1.8     c0.3-0.5,0.8-0.7,1.3-0.7c0.6,0,1.1,0.2,1.3,0.5c0.3,0.4,0.4,0.8,0.4,1.5c0,0.4-0.2,0.9-0.5,1.5c-0.3,0.6-0.8,1.2-1.4,2l-4.9,5.4     v2.4h11v-2.8L30.9,387.9L30.9,387.9z" id="XMLID_674_"/><path class="st8" d="M44.3,374.7c-1.7,0-3,0.5-4,1.6c-1,1.1-1.5,2.6-1.5,4.4v4.2c0,1.9,0.5,3.4,1.5,4.4     c1,1.1,2.3,1.6,4,1.6c1.7,0,3-0.5,4-1.6c1-1.1,1.5-2.6,1.5-4.4v-4.2c0-1.9-0.5-3.4-1.5-4.4C47.3,375.2,45.9,374.7,44.3,374.7z      M46.2,385.2c0,1-0.2,1.7-0.5,2.2c-0.3,0.5-0.8,0.8-1.4,0.8c-0.6,0-1.1-0.3-1.4-0.8c-0.3-0.5-0.5-1.3-0.5-2.2v-4.7     c0-1,0.2-1.7,0.5-2.2c0.3-0.5,0.8-0.8,1.4-0.8c0.6,0,1,0.3,1.4,0.8c0.3,0.5,0.5,1.2,0.5,2.2V385.2z" id="XMLID_671_"/><polygon class="st8" id="XMLID_670_" points="53,378.1 56.2,378.1 56.2,390.8 59.9,390.8 59.9,374.7 53,375.3    "/><path class="st8" d="M75.3,384c-0.5-0.6-1.1-1.1-2-1.4c0.7-0.3,1.3-0.8,1.8-1.4c0.4-0.6,0.7-1.3,0.7-2     c0-1.4-0.5-2.6-1.6-3.3c-1-0.8-2.4-1.2-4.1-1.2c-1.5,0-2.7,0.4-3.8,1.2c-1,0.8-1.5,1.8-1.5,3.1l0,0.1h3.6c0-0.4,0.2-0.8,0.5-1.1     c0.3-0.3,0.7-0.4,1.2-0.4c0.6,0,1.1,0.2,1.5,0.5s0.5,0.8,0.5,1.3c0,0.6-0.2,1.1-0.5,1.5c-0.4,0.4-0.9,0.5-1.5,0.5h-1.7v2.7H70     c0.7,0,1.3,0.2,1.7,0.5c0.4,0.4,0.6,0.9,0.6,1.7c0,0.5-0.2,1-0.6,1.4c-0.4,0.4-1,0.5-1.6,0.5c-0.6,0-1-0.2-1.4-0.5     c-0.4-0.3-0.5-0.8-0.5-1.3h-3.6l0,0.1c0,1.5,0.5,2.6,1.6,3.4c1.1,0.8,2.4,1.2,3.9,1.2c1.7,0,3.1-0.4,4.3-1.2     c1.1-0.8,1.7-2,1.7-3.4C75.9,385.4,75.7,384.7,75.3,384z" id="XMLID_669_"/></g></g><rect class="st0" height="45.1" id="XMLID_741_" width="94.2" x="116.8" y="166.3"/><polygon class="st1" id="XMLID_739_" points="227.5,152.8 211,211.4 211,166.3 227.5,107.8  "/><rect class="st2" height="45.1" id="XMLID_738_" width="94.2" x="116.8" y="211.2"/><polygon class="st3" id="XMLID_737_" points="227.5,197.7 211,256.2 211,211.2 227.5,152.6  "/><rect class="st4" height="45.1" id="XMLID_736_" width="94.2" x="116.8" y="256"/><polygon class="st5" id="XMLID_735_" points="227.5,242.6 211,301.1 211,256 227.5,197.5  "/><rect class="st6" height="45.1" id="XMLID_734_" width="94.2" x="116.8" y="300.9"/><polygon class="st7" id="XMLID_733_" points="227.5,287.4 211,346 211,300.9 227.5,242.4  "/><polygon class="st0" id="XMLID_828_" points="426.8,152.6 227.5,152.6 227.5,107.5 426.8,107.5 451.9,130  "/><polygon class="st2" id="XMLID_827_" points="384.5,197.4 227.5,197.4 227.5,152.3 384.5,152.3 409.7,174.9  "/><polygon class="st4" id="XMLID_826_" points="345.2,242.3 227.5,242.3 227.5,197.2 345.2,197.2 370.4,219.8  "/><polygon class="st6" id="XMLID_825_" points="301.5,287.2 227.5,287.2 227.5,242.1 301.5,242.1 326.6,264.6  "/><g id="XMLID_814_"><path class="st0" d="M455.7,123.8h9.8c-1.8,2-3.2,4.1-4.2,6.3c-0.9,2.2-1.4,4.6-1.4,7.2v2.6h4.5v-2.6    c0-2.7,0.4-5,1.1-7c0.8-2,2.2-4.2,4.3-6.5v-3.5h-14.2V123.8z" id="XMLID_823_"/><path class="st0" d="M480,127c-0.7,0-1.3,0.1-1.9,0.3c-0.6,0.2-1,0.4-1.4,0.6l0.5-4.1h7.8v-3.5h-11.5l-1.1,11    l4.1,0.2c0.1-0.4,0.4-0.7,0.8-1c0.4-0.3,0.9-0.4,1.5-0.4c0.8,0,1.4,0.3,1.8,0.9c0.4,0.6,0.6,1.5,0.6,2.5c0,1-0.2,1.8-0.5,2.3    c-0.3,0.5-0.9,0.8-1.8,0.8c-0.7,0-1.3-0.2-1.7-0.6c-0.4-0.4-0.7-0.9-0.7-1.6l-4.4,0.3l0,0.1c-0.1,1.6,0.6,2.9,2,3.9    c1.4,1,3,1.5,4.9,1.5c2.3,0,4.1-0.6,5.2-1.9c1.1-1.2,1.6-2.8,1.6-4.7c0-2.1-0.5-3.7-1.5-4.9C483.3,127.5,481.9,127,480,127z" id="XMLID_822_"/><polygon class="st0" id="XMLID_821_" points="500.4,122.1 490.9,137.4 493,138.4 502.5,123.1   "/><path class="st0" d="M495.6,128c0.8-0.8,1.1-1.7,1.1-2.9v-1c0-1.2-0.4-2.1-1.1-2.9c-0.8-0.8-1.8-1.1-3.2-1.1    c-1.4,0-2.5,0.4-3.2,1.1c-0.8,0.8-1.1,1.7-1.1,2.9v1c0,1.2,0.4,2.1,1.1,2.9c0.8,0.8,1.8,1.1,3.2,1.1    C493.7,129.1,494.8,128.8,495.6,128z M490.9,125.1v-1c0-0.4,0.1-0.8,0.4-1.1c0.3-0.3,0.6-0.5,1.1-0.5c0.5,0,0.8,0.2,1.1,0.5    c0.3,0.3,0.4,0.7,0.4,1.1v1c0,0.4-0.1,0.8-0.4,1.1c-0.2,0.3-0.6,0.5-1.1,0.5c-0.5,0-0.8-0.1-1.1-0.5    C491,125.9,490.9,125.6,490.9,125.1z" id="XMLID_818_"/><path class="st0" d="M504.9,132.2c-0.7-0.8-1.8-1.1-3.2-1.1c-1.4,0-2.5,0.4-3.2,1.1c-0.8,0.8-1.1,1.7-1.1,2.9v1    c0,1.2,0.4,2.1,1.1,2.9c0.8,0.8,1.8,1.1,3.2,1.1c1.4,0,2.5-0.4,3.2-1.1c0.7-0.8,1.1-1.7,1.1-2.9v-1    C506,133.9,505.6,133,504.9,132.2z M503.1,136.1c0,0.5-0.1,0.9-0.3,1.2c-0.2,0.3-0.6,0.4-1.1,0.4c-0.4,0-0.8-0.2-1-0.5    c-0.3-0.3-0.4-0.7-0.4-1.1v-1c0-0.4,0.1-0.8,0.4-1.1c0.3-0.3,0.6-0.5,1.1-0.5c0.5,0,0.8,0.2,1.1,0.5c0.3,0.3,0.4,0.7,0.4,1.1    V136.1z" id="XMLID_815_"/></g><g id="XMLID_804_"><path class="st2" d="M423.6,172.3c-0.7,0-1.3,0.1-1.9,0.3c-0.6,0.2-1,0.4-1.4,0.6l0.5-4.1h7.9v-3.6h-11.6    l-1.1,11.1l4.1,0.2c0.1-0.4,0.4-0.7,0.8-1c0.4-0.3,0.9-0.4,1.5-0.4c0.8,0,1.5,0.3,1.8,0.9c0.4,0.6,0.6,1.5,0.6,2.6    c0,1-0.2,1.8-0.5,2.3c-0.3,0.5-0.9,0.8-1.8,0.8c-0.7,0-1.3-0.2-1.7-0.6c-0.4-0.4-0.7-0.9-0.7-1.6l-4.5,0.3l0,0.1    c-0.1,1.6,0.6,2.9,2,3.9c1.4,1,3,1.5,4.9,1.5c2.4,0,4.1-0.6,5.2-1.9c1.1-1.3,1.7-2.8,1.7-4.8c0-2.1-0.5-3.8-1.5-4.9    C426.9,172.8,425.4,172.2,423.6,172.3z" id="XMLID_813_"/><path class="st2" d="M439.7,172.3c-0.7,0-1.3,0.1-1.9,0.3c-0.6,0.2-1,0.4-1.4,0.6l0.5-4.1h7.9v-3.6h-11.6    l-1.1,11.1l4.1,0.2c0.1-0.4,0.4-0.7,0.8-1c0.4-0.3,0.9-0.4,1.5-0.4c0.8,0,1.5,0.3,1.8,0.9c0.4,0.6,0.6,1.5,0.6,2.6    c0,1-0.2,1.8-0.5,2.3c-0.3,0.5-0.9,0.8-1.8,0.8c-0.7,0-1.3-0.2-1.7-0.6c-0.4-0.4-0.7-0.9-0.7-1.6l-4.5,0.3l0,0.1    c-0.1,1.6,0.6,2.9,2,3.9c1.4,1,3,1.5,4.9,1.5c2.4,0,4.1-0.6,5.2-1.9c1.1-1.3,1.7-2.8,1.7-4.8c0-2.1-0.5-3.8-1.5-4.9    C442.9,172.8,441.5,172.2,439.7,172.3z" id="XMLID_812_"/><path class="st2" d="M455.4,173.3c0.8-0.8,1.1-1.7,1.1-2.9v-1c0-1.2-0.4-2.1-1.1-2.9c-0.8-0.8-1.8-1.2-3.3-1.2    c-1.4,0-2.5,0.4-3.2,1.2c-0.8,0.8-1.1,1.7-1.1,2.9v1c0,1.2,0.4,2.1,1.1,2.9c0.8,0.8,1.9,1.2,3.3,1.2    C453.5,174.4,454.6,174,455.4,173.3z M450.7,170.3v-1c0-0.5,0.1-0.8,0.4-1.1c0.3-0.3,0.6-0.5,1.1-0.5c0.5,0,0.8,0.2,1.1,0.5    c0.3,0.3,0.4,0.7,0.4,1.1v1c0,0.5-0.1,0.8-0.4,1.1c-0.2,0.3-0.6,0.5-1.1,0.5c-0.5,0-0.8-0.2-1.1-0.5    C450.8,171.2,450.7,170.8,450.7,170.3z" id="XMLID_809_"/><polygon class="st2" id="XMLID_808_" points="460.3,167.3 450.6,182.7 452.8,183.8 462.4,168.3   "/><path class="st2" d="M464.8,177.5c-0.8-0.8-1.8-1.2-3.3-1.2c-1.4,0-2.5,0.4-3.3,1.2c-0.8,0.8-1.2,1.7-1.2,2.9v1    c0,1.2,0.4,2.1,1.2,2.9c0.8,0.8,1.9,1.2,3.3,1.2c1.4,0,2.5-0.4,3.2-1.1c0.8-0.8,1.1-1.7,1.1-2.9v-1    C465.9,179.2,465.5,178.3,464.8,177.5z M463,181.4c0,0.5-0.1,0.9-0.3,1.2c-0.2,0.3-0.6,0.4-1.1,0.4c-0.4,0-0.8-0.2-1.1-0.5    c-0.3-0.3-0.4-0.7-0.4-1.1v-1c0-0.4,0.1-0.8,0.4-1.1c0.3-0.3,0.6-0.5,1.1-0.5c0.5,0,0.8,0.2,1.1,0.5s0.4,0.7,0.4,1.1V181.4z" id="XMLID_805_"/></g><g id="XMLID_794_"><path class="st4" d="M386.4,220.4c0.9-0.4,1.7-1,2.2-1.8c0.5-0.7,0.8-1.6,0.8-2.5c0-1.8-0.6-3.2-1.9-4.2    c-1.3-1-3-1.5-5.1-1.5c-1.8,0-3.4,0.5-4.7,1.5c-1.3,1-1.9,2.2-1.8,3.8l0,0.1h4.4c0-0.5,0.2-1,0.6-1.3c0.4-0.3,0.9-0.5,1.5-0.5    c0.8,0,1.4,0.2,1.8,0.6c0.4,0.4,0.7,0.9,0.7,1.6c0,0.8-0.2,1.4-0.7,1.8c-0.4,0.4-1.1,0.7-1.9,0.7h-2.2v3.4h2.2    c0.9,0,1.6,0.2,2.1,0.7c0.5,0.4,0.7,1.1,0.7,2.1c0,0.7-0.3,1.2-0.8,1.7c-0.5,0.5-1.2,0.7-2,0.7c-0.7,0-1.2-0.2-1.7-0.6    c-0.4-0.4-0.7-1-0.7-1.6h-4.4l0,0.1c0,1.8,0.6,3.2,2,4.2c1.4,1,3,1.5,4.8,1.5c2.1,0,3.9-0.5,5.3-1.5c1.4-1,2.1-2.4,2.1-4.2    c0-1.1-0.3-2.1-0.9-2.8C388.3,221.4,387.5,220.8,386.4,220.4z" id="XMLID_803_"/><path class="st4" d="M399.8,217.6c-0.7,0-1.3,0.1-1.9,0.3c-0.6,0.2-1,0.4-1.4,0.6l0.5-4.1h7.8v-3.5h-11.5l-1.1,11    l4.1,0.2c0.1-0.4,0.4-0.7,0.8-1c0.4-0.3,0.9-0.4,1.5-0.4c0.8,0,1.4,0.3,1.8,0.9c0.4,0.6,0.6,1.5,0.6,2.6c0,1-0.2,1.8-0.5,2.3    c-0.3,0.5-0.9,0.8-1.8,0.8c-0.7,0-1.3-0.2-1.7-0.6c-0.4-0.4-0.7-0.9-0.7-1.6l-4.5,0.3l0,0.1c-0.1,1.6,0.6,2.9,2,3.9    c1.4,1,3,1.5,4.9,1.5c2.4,0,4.1-0.6,5.2-1.9c1.1-1.3,1.6-2.8,1.6-4.7c0-2.1-0.5-3.8-1.5-4.9C403,218.1,401.6,217.6,399.8,217.6z" id="XMLID_802_"/><polygon class="st4" id="XMLID_801_" points="420.3,212.6 410.7,228 412.8,229.1 422.4,213.7   "/><path class="st4" d="M415.4,218.6c0.8-0.8,1.1-1.7,1.1-2.9v-1c0-1.2-0.4-2.1-1.1-2.9s-1.8-1.2-3.3-1.2    c-1.4,0-2.5,0.4-3.2,1.2s-1.1,1.7-1.1,2.9v1c0,1.2,0.4,2.1,1.1,2.9c0.8,0.8,1.8,1.1,3.2,1.1C413.6,219.7,414.7,219.4,415.4,218.6z     M410.7,215.7v-1c0-0.4,0.1-0.8,0.4-1.1c0.3-0.3,0.6-0.5,1.1-0.5c0.5,0,0.8,0.2,1.1,0.5c0.3,0.3,0.4,0.7,0.4,1.1v1    c0,0.5-0.1,0.8-0.4,1.1c-0.2,0.3-0.6,0.5-1.1,0.5c-0.5,0-0.8-0.2-1.1-0.5C410.9,216.5,410.7,216.1,410.7,215.7z" id="XMLID_798_"/><path class="st4" d="M424.8,222.8c-0.8-0.8-1.8-1.1-3.2-1.1c-1.4,0-2.5,0.4-3.2,1.2c-0.8,0.8-1.1,1.7-1.1,2.9v1    c0,1.2,0.4,2.1,1.2,2.9c0.8,0.8,1.9,1.1,3.3,1.1c1.4,0,2.5-0.4,3.2-1.1c0.8-0.8,1.1-1.7,1.1-2.9v-1    C425.9,224.6,425.5,223.6,424.8,222.8z M423,226.8c0,0.5-0.1,0.9-0.3,1.2c-0.2,0.3-0.6,0.4-1.1,0.4c-0.4,0-0.8-0.2-1.1-0.5    c-0.3-0.3-0.4-0.7-0.4-1.1v-1c0-0.4,0.1-0.8,0.4-1.1c0.3-0.3,0.6-0.5,1.1-0.5c0.5,0,0.8,0.2,1.1,0.5s0.4,0.7,0.4,1.1V226.8z" id="XMLID_795_"/></g><g id="XMLID_784_"><polygon class="st6" id="XMLID_793_" points="333.7,258.5 337.8,258.5 337.8,274.9 342.5,274.9 342.5,254.2 333.7,254.9   "/><path class="st6" d="M356.9,261.4c-0.7,0-1.3,0.1-1.9,0.3c-0.6,0.2-1.1,0.4-1.5,0.7l0.5-4.2h8.1v-3.7h-11.9    l-1.2,11.4l4.2,0.2c0.1-0.4,0.4-0.8,0.8-1c0.4-0.3,0.9-0.4,1.5-0.4c0.9,0,1.5,0.3,1.9,1c0.4,0.6,0.6,1.5,0.6,2.6    c0,1.1-0.2,1.9-0.5,2.4c-0.3,0.5-1,0.8-1.8,0.8c-0.7,0-1.3-0.2-1.8-0.6c-0.5-0.4-0.7-1-0.7-1.7l-4.6,0.3l0,0.1    c-0.1,1.7,0.6,3,2.1,4.1c1.4,1,3.1,1.5,5.1,1.5c2.4,0,4.2-0.7,5.4-2c1.1-1.3,1.7-2.9,1.7-4.9c0-2.2-0.5-3.9-1.5-5.1    C360.3,262,358.8,261.4,356.9,261.4z" id="XMLID_792_"/><path class="st6" d="M373.1,262.5c0.8-0.8,1.2-1.8,1.2-3v-1.1c0-1.2-0.4-2.2-1.2-3c-0.8-0.8-1.9-1.2-3.4-1.2    c-1.4,0-2.6,0.4-3.3,1.2c-0.8,0.8-1.2,1.8-1.2,3v1.1c0,1.2,0.4,2.2,1.2,3c0.8,0.8,1.9,1.2,3.4,1.2    C371.2,263.7,372.3,263.3,373.1,262.5z M368.2,259.5v-1.1c0-0.5,0.1-0.9,0.4-1.2c0.3-0.3,0.6-0.5,1.1-0.5c0.5,0,0.9,0.2,1.1,0.5    c0.3,0.3,0.4,0.7,0.4,1.2v1.1c0,0.5-0.1,0.9-0.4,1.2c-0.3,0.3-0.6,0.5-1.1,0.5c-0.5,0-0.9-0.2-1.1-0.5    C368.4,260.3,368.2,259.9,368.2,259.5z" id="XMLID_789_"/><path class="st6" d="M382.8,266.8c-0.8-0.8-1.9-1.2-3.4-1.2c-1.4,0-2.6,0.4-3.4,1.2c-0.8,0.8-1.2,1.8-1.2,3v1.1    c0,1.2,0.4,2.2,1.2,3c0.8,0.8,1.9,1.2,3.4,1.2c1.4,0,2.6-0.4,3.3-1.2c0.8-0.8,1.2-1.8,1.2-3v-1.1    C384,268.6,383.6,267.6,382.8,266.8z M381,270.9c0,0.5-0.1,0.9-0.3,1.2c-0.2,0.3-0.6,0.4-1.2,0.4c-0.4,0-0.8-0.2-1.1-0.5    c-0.3-0.3-0.4-0.7-0.4-1.2v-1.1c0-0.5,0.1-0.8,0.4-1.2c0.3-0.3,0.6-0.5,1.1-0.5c0.5,0,0.8,0.2,1.1,0.5s0.4,0.7,0.4,1.2V270.9z" id="XMLID_786_"/><polygon class="st6" id="XMLID_785_" points="378.2,256.3 368.2,272.2 370.4,273.3 380.4,257.4   "/></g></g></svg>