<?xml version="1.0" ?><svg id="Layer_1" style="enable-background:new 0 0 512 512;" version="1.1" viewBox="0 0 512 512" xml:space="preserve" xmlns="http://www.w3.org/2000/svg" xmlns:xlink="http://www.w3.org/1999/xlink"><style type="text/css">
	.st0{fill:#FBD502;}
	.st1{fill:#E2B700;}
	.st2{fill:#F5A506;}
	.st3{fill:#EA6159;}
	.st4{fill:#F4908C;}
	.st5{fill:#D5373D;}
	.st6{fill:#1F3444;}
	.st7{fill:#2E4356;}
	.st8{fill:#13283B;}
	.st9{fill:#BBBF1D;}
	.st10{fill:#CCE134;}
	.st11{fill:#97BE15;}
	.st12{fill:#60A093;}
	.st13{fill:#90C9C1;}
	.st14{fill:#3D7768;}
</style><g id="XMLID_14_"><g id="XMLID_35_"><polygon class="st0" id="XMLID_39_" points="293.7,24.5 293.7,421.7 293.7,421.7 330.6,438.6 367.5,421.7 367.5,421.7 367.5,24.5       "/><polygon class="st1" id="XMLID_38_" points="330,24.6 330,438.4 330.4,438.6 367.4,421.7 367.4,421.7 367.4,24.6   "/><g id="XMLID_36_"><polyline class="st2" id="XMLID_37_" points="330.6,6.1 293.7,24.5 330.6,43 367.5,24.5 330.6,6.1    "/></g></g><g id="XMLID_30_"><polygon class="st3" id="XMLID_34_" points="256.8,93.5 256.8,438.6 256.8,438.6 293.7,455.5 330.6,438.6 330.6,438.6 330.6,93.5       "/><polygon class="st4" id="XMLID_33_" points="293.3,93.5 256.8,93.5 256.8,438.6 256.8,438.6 293.3,455.3   "/><g id="XMLID_31_"><polyline class="st5" id="XMLID_32_" points="293.7,75.1 256.8,93.5 293.7,112 330.6,93.5 293.7,75.1    "/></g></g><g id="XMLID_25_"><polygon class="st6" id="XMLID_29_" points="219.8,155 219.8,455.4 219.8,455.4 256.7,472.3 293.6,455.4 293.7,455.4 293.7,155       "/><polygon class="st7" id="XMLID_28_" points="256.4,155 219.8,155 219.8,455.4 219.8,455.4 256.4,472.1   "/><g id="XMLID_26_"><polyline class="st8" id="XMLID_27_" points="256.7,136.5 219.8,155 256.7,173.4 293.7,155 256.7,136.5    "/></g></g><g id="XMLID_20_"><polygon class="st9" id="XMLID_24_" points="182.9,219.2 182.9,472.3 182.9,472.3 219.8,489.2 256.7,472.3 256.7,472.3     256.7,219.2   "/><polygon class="st10" id="XMLID_23_" points="219.8,219.2 182.9,219.2 182.9,472.7 182.9,472.7 219.8,488.8   "/><g id="XMLID_21_"><polyline class="st11" id="XMLID_22_" points="219.8,200.7 182.9,219.2 219.8,237.7 256.7,219.2 219.8,200.7    "/></g></g><g id="XMLID_15_"><polygon class="st12" id="XMLID_19_" points="145.9,281 145.9,489.2 145.9,489.2 182.9,506.1 219.8,489.2 219.8,489.2 219.8,281       "/><polygon class="st13" id="XMLID_18_" points="182.5,281 145.9,281 145.9,489.2 145.9,489.2 182.5,505.9   "/><g id="XMLID_16_"><polyline class="st14" id="XMLID_17_" points="182.9,262.5 145.9,281 182.9,299.5 219.8,281 182.9,262.5    "/></g></g></g></svg>